<?xml version="1.0" encoding="UTF-8" standalone="no"?>
<!-- Created with Inkscape (http://www.inkscape.org/) -->

<svg
   width="51.599976"
   height="77.29248"
   viewBox="0 0 51.599976 77.29248"
   version="1.1"
   id="svg1"
   inkscape:version="1.3.2 (091e20e, 2023-11-25, custom)"
   xml:space="preserve"
   inkscape:export-filename="2.svg"
   inkscape:export-xdpi="96"
   inkscape:export-ydpi="96"
   xmlns:inkscape="http://www.inkscape.org/namespaces/inkscape"
   xmlns:sodipodi="http://sodipodi.sourceforge.net/DTD/sodipodi-0.dtd"
   xmlns:xlink="http://www.w3.org/1999/xlink"
   xmlns="http://www.w3.org/2000/svg"
   xmlns:svg="http://www.w3.org/2000/svg"><sodipodi:namedview
     id="namedview1"
     pagecolor="#e6e6e6"
     bordercolor="#ffffff"
     borderopacity="1"
     inkscape:showpageshadow="false"
     inkscape:pageopacity="0.0"
     inkscape:pagecheckerboard="false"
     inkscape:deskcolor="#1d1d1d"
     inkscape:document-units="px"
     showborder="true"
     borderlayer="true"
     labelstyle="default"
     shape-rendering="auto" /><defs
     id="defs1"><linearGradient
       id="linearGradient1"
       inkscape:collect="always"><stop
         style="stop-color:#000000;stop-opacity:0.15000001;"
         offset="0"
         id="stop1" /><stop
         style="stop-color:#000000;stop-opacity:0.04481793;"
         offset="1"
         id="stop2" /></linearGradient><linearGradient
       inkscape:collect="always"
       xlink:href="#linearGradient1"
       id="linearGradient2"
       x1="39.405144"
       y1="19.677917"
       x2="39.243141"
       y2="53.32972"
       gradientUnits="userSpaceOnUse"
       gradientTransform="matrix(1.560366,0,0,1.560366,593.71513,306.68405)" /></defs><g
     inkscape:label="Layer 1"
     inkscape:groupmode="layer"
     id="layer1"
     transform="translate(-614.20001,-321.02856)"><path
       style="font-size:129px;line-height:1.4;font-family:'Frank Ruehl CLM';-inkscape-font-specification:'Frank Ruehl CLM';text-align:center;letter-spacing:0px;word-spacing:0px;text-anchor:middle;fill:url(#linearGradient2);fill-rule:evenodd;stroke-width:5.91683;stroke-linecap:round;stroke-miterlimit:14"
       d="m 648.59999,357.14856 q 8.385,1.505 12.7925,6.665 4.4075,5.0525 4.4075,12.685 0,9.89 -7.4175,15.91 -7.4175,5.9125 -19.6725,5.9125 -10.8575,0 -17.7375,-4.8375 -6.7725,-4.945 -6.7725,-12.7925 0,-4.085 2.4725,-6.7725 2.4725,-2.6875 5.9125,-2.6875 3.5475,0 5.6975,1.8275 2.2575,1.72 2.2575,4.945 0,3.7625 -4.1925,6.3425 -1.6125,0.86 -2.0425,1.29 -0.3225,0.3225 -0.3225,1.075 0,2.2575 4.3,4.085 4.3,1.8275 8.7075,1.8275 6.9875,0 10.8575,-4.4075 3.9775,-4.515 3.9775,-11.9325 0,-7.4175 -3.1175,-11.61 -3.1175,-4.1925 -8.9225,-4.1925 -0.9675,0 -5.0525,0.1075 -1.3975,0.1075 -2.58,0.1075 -3.3325,0 -3.3325,-3.225 0,-3.44 3.44,-3.44 1.505,0 2.365,0.1075 3.225,0.215 4.3,0.215 5.6975,0 8.6,-3.87 2.9025,-3.87 2.9025,-10.8575 0,-5.805 -3.01,-9.3525 -2.9025,-3.5475 -8.4925,-3.5475 -4.1925,0 -7.74,1.72 -3.5475,1.6125 -3.5475,3.44 0,0.9675 1.3975,1.935 3.3325,2.365 3.3325,5.4825 0,2.9025 -1.935,4.73 -1.935,1.72 -5.4825,1.72 -3.655,0 -5.6975,-2.0425 -2.0425,-2.0425 -2.0425,-5.4825 0,-7.31 6.665,-12.255 6.7725,-4.945 16.6625,-4.945 10.535,0 16.77,5.0525 6.3425,5.0525 6.3425,13.4375 0,5.6975 -3.225,10.105 -3.225,4.3 -9.245,6.665 -0.3225,0.1075 -0.645,0.215 -0.215,0.1075 -0.7525,0.3225 -0.5375,0.1075 -1.1825,0.3225 z"
       id="text1"
       aria-label="3" /></g></svg>
