<?xml version="1.0" encoding="UTF-8" standalone="no"?>
<!-- Created with Inkscape (http://www.inkscape.org/) -->

<svg
   width="250.00003"
   height="252.06569"
   viewBox="0 0 250.00003 252.06569"
   version="1.1"
   id="svg1"
   inkscape:version="1.3.2 (091e20e, 2023-11-25, custom)"
   xml:space="preserve"
   xmlns:inkscape="http://www.inkscape.org/namespaces/inkscape"
   xmlns:sodipodi="http://sodipodi.sourceforge.net/DTD/sodipodi-0.dtd"
   xmlns="http://www.w3.org/2000/svg"
   xmlns:svg="http://www.w3.org/2000/svg"><sodipodi:namedview
     id="namedview1"
     pagecolor="#e6e6e6"
     bordercolor="#ffffff"
     borderopacity="1"
     inkscape:showpageshadow="false"
     inkscape:pageopacity="0.0"
     inkscape:pagecheckerboard="false"
     inkscape:deskcolor="#1d1d1d"
     inkscape:document-units="px"
     showborder="true"
     borderlayer="true"
     labelstyle="default"
     shape-rendering="auto" /><defs
     id="defs1" /><g
     inkscape:label="Layer 1"
     inkscape:groupmode="layer"
     id="layer1"
     transform="translate(-269.18777,-84.949234)"><path
       style="fill:#8c67e6;fill-opacity:1;fill-rule:evenodd;stroke:none;stroke-width:5.25325;stroke-linecap:round;stroke-miterlimit:14"
       d="m 273.87139,191.17635 c 5.0602,7.98086 16.69862,38.40793 17.71065,72.82547 1.01203,34.41748 38.45743,64.34579 65.78244,69.33384 27.32501,4.98801 67.43019,11.05817 94.11948,-27.43427 11.44371,-16.50457 46.83966,-34.91532 56.16803,-40.90198 12.83046,-8.23418 16.05554,-25.05295 4.04817,-33.41992 -14.72859,-10.26319 -32.74362,3.56282 -42.50556,6.48449 -15.47996,4.63308 -21.25277,-3.49164 -8.09632,-15.96178 13.15647,-12.47011 38.34356,-33.25288 41.99955,-36.91152 3.69298,-3.69562 8.75386,-16.39708 -1.01203,-26.93544 -9.80563,-10.58125 -24.7949,-6.48449 -33.90322,0.99759 -9.10838,7.48209 -26.31299,22.44622 -29.34912,26.93545 -3.0361,4.48924 -14.67451,11.47249 -12.14446,-4.48923 2.5301,-15.96173 19.73476,-59.85656 20.24074,-64.84461 0.50584,-4.98801 4.34025,-20.146449 -13.66247,-23.942593 -10.06686,-2.12273 -19.22871,5.486857 -25.30094,17.458153 -6.07223,11.97132 -17.71065,54.36966 -19.22873,59.85656 -1.51801,5.48683 -6.69944,6.04965 -8.74259,0.14343 -3.85409,-11.14099 -7.95602,-60.99765 -7.95602,-65.98569 0,-4.988037 -1.93193,-17.521121 -20.24074,-16.959352 -13.27862,0.407449 -17.71065,11.4725 -17.71065,21.448572 0,9.97612 5.0602,75.31951 3.54212,79.80874 -1.51802,4.48923 -7.59025,14.96413 -14.16852,5.98566 -6.5782,-8.97847 -10.12034,-37.41034 -37.95138,-37.41034 -27.831,0 -11.63843,33.91871 -11.63843,33.91871 z"
       id="path4"
       sodipodi:nodetypes="cssssssssssssssssssssssscc" /><path
       style="fill:none;fill-opacity:1;fill-rule:evenodd;stroke:#7120d4;stroke-width:5.25325;stroke-linecap:round;stroke-miterlimit:14;stroke-opacity:1"
       d="m 355.08396,209.86043 c 7.15617,4.23247 30.05596,23.2787 22.54195,57.8441"
       id="path5" /><path
       style="fill:#7120d4;fill-opacity:1;fill-rule:evenodd;stroke:none;stroke-width:5.25325;stroke-linecap:round;stroke-miterlimit:14"
       d="m 474.66847,129.14188 c 0.13915,-2.68268 25.84741,-26.84314 33.90375,-19.63163 8.05638,7.21155 5.59942,14.88124 -1.51796,16.65588 -4.13489,1.03098 -25.55917,9.27435 -28.06772,9.00486 -2.44847,-0.26288 -4.40923,-4.27075 -4.31807,-6.02911 z"
       id="path7"
       sodipodi:nodetypes="sssss" /><path
       style="fill:#7120d4;fill-opacity:1;fill-rule:evenodd;stroke:none;stroke-width:4.30849;stroke-linecap:round;stroke-miterlimit:14"
       d="m 464.10032,117.04397 c -0.76925,-1.78688 10.91064,-32.022251 19.3934,-32.094129 8.48275,-0.07188 9.11524,6.227586 4.27848,11.472423 -2.8099,3.047031 -16.42268,20.680286 -18.41939,21.959526 -1.94877,1.2488 -4.74818,-0.16637 -5.25249,-1.33782 z"
       id="path8"
       sodipodi:nodetypes="sssss" /></g></svg>
